TITLE ""
FILE "1Q_t_0759-0768.mp3" MP3
  TRACK 01 AUDIO
    TITLE "1Q_t_0759-0768_01"
    INDEX 01 00:00:00
  TRACK 02 AUDIO
    TITLE "1Q_t_0759-0768_02"
    INDEX 01 00:01:22
  TRACK 03 AUDIO
    TITLE "1Q_t_0759-0768_03"
    INDEX 01 00:01:25
  TRACK 04 AUDIO
    TITLE "1Q_t_0759-0768_04"
    INDEX 01 00:05:11
  TRACK 05 AUDIO
    TITLE "1Q_t_0759-0768_05"
    INDEX 01 00:05:17
  TRACK 06 AUDIO
    TITLE "1Q_t_0759-0768_06"
    INDEX 01 00:12:15
  TRACK 07 AUDIO
    TITLE "1Q_t_0759-0768_07"
    INDEX 01 00:12:64
  TRACK 08 AUDIO
    TITLE "1Q_t_0759-0768_08"
    INDEX 01 00:14:08
  TRACK 09 AUDIO
    TITLE "1Q_t_0759-0768_09"
    INDEX 01 00:14:16
  TRACK 10 AUDIO
    TITLE "1Q_t_0759-0768_10"
    INDEX 01 00:16:13
  TRACK 11 AUDIO
    TITLE "1Q_t_0759-0768_11"
    INDEX 01 00:16:21
  TRACK 12 AUDIO
    TITLE "1Q_t_0759-0768_12"
    INDEX 01 00:22:02
  TRACK 13 AUDIO
    TITLE "1Q_t_0759-0768_13"
    INDEX 01 00:22:47
  TRACK 14 AUDIO
    TITLE "1Q_t_0759-0768_14"
    INDEX 01 00:23:74
  TRACK 15 AUDIO
    TITLE "1Q_t_0759-0768_15"
    INDEX 01 00:24:05
  TRACK 16 AUDIO
    TITLE "1Q_t_0759-0768_16"
    INDEX 01 00:25:30
  TRACK 17 AUDIO
    TITLE "1Q_t_0759-0768_17"
    INDEX 01 00:25:36
  TRACK 18 AUDIO
    TITLE "1Q_t_0759-0768_18"
    INDEX 01 00:30:09
  TRACK 19 AUDIO
    TITLE "1Q_t_0759-0768_19"
    INDEX 01 00:30:56
  TRACK 20 AUDIO
    TITLE "1Q_t_0759-0768_20"
    INDEX 01 00:32:01
  TRACK 21 AUDIO
    TITLE "1Q_t_0759-0768_21"
    INDEX 01 00:32:10
  TRACK 22 AUDIO
    TITLE "1Q_t_0759-0768_22"
    INDEX 01 00:33:45
  TRACK 23 AUDIO
    TITLE "1Q_t_0759-0768_23"
    INDEX 01 00:33:53
  TRACK 24 AUDIO
    TITLE "1Q_t_0759-0768_24"
    INDEX 01 00:37:58
  TRACK 25 AUDIO
    TITLE "1Q_t_0759-0768_25"
    INDEX 01 00:38:30
  TRACK 26 AUDIO
    TITLE "1Q_t_0759-0768_26"
    INDEX 01 00:39:30
  TRACK 27 AUDIO
    TITLE "1Q_t_0759-0768_27"
    INDEX 01 00:39:38
  TRACK 28 AUDIO
    TITLE "1Q_t_0759-0768_28"
    INDEX 01 00:41:70
  TRACK 29 AUDIO
    TITLE "1Q_t_0759-0768_29"
    INDEX 01 00:42:03
  TRACK 30 AUDIO
    TITLE "1Q_t_0759-0768_30"
    INDEX 01 00:47:67
  TRACK 31 AUDIO
    TITLE "1Q_t_0759-0768_31"
    INDEX 01 00:48:41
  TRACK 32 AUDIO
    TITLE "1Q_t_0759-0768_32"
    INDEX 01 00:49:54
  TRACK 33 AUDIO
    TITLE "1Q_t_0759-0768_33"
    INDEX 01 00:49:66
  TRACK 34 AUDIO
    TITLE "1Q_t_0759-0768_34"
    INDEX 01 00:52:07
  TRACK 35 AUDIO
    TITLE "1Q_t_0759-0768_35"
    INDEX 01 00:52:15
  TRACK 36 AUDIO
    TITLE "1Q_t_0759-0768_36"
    INDEX 01 00:57:57
  TRACK 37 AUDIO
    TITLE "1Q_t_0759-0768_37"
    INDEX 01 00:58:29
  TRACK 38 AUDIO
    TITLE "1Q_t_0759-0768_38"
    INDEX 01 00:59:40
  TRACK 39 AUDIO
    TITLE "1Q_t_0759-0768_39"
    INDEX 01 00:59:60
  TRACK 40 AUDIO
    TITLE "1Q_t_0759-0768_40"
    INDEX 01 01:00:73
  TRACK 41 AUDIO
    TITLE "1Q_t_0759-0768_41"
    INDEX 01 01:01:06
  TRACK 42 AUDIO
    TITLE "1Q_t_0759-0768_42"
    INDEX 01 01:07:07
  TRACK 43 AUDIO
    TITLE "1Q_t_0759-0768_43"
    INDEX 01 01:07:60
  TRACK 44 AUDIO
    TITLE "1Q_t_0759-0768_44"
    INDEX 01 01:08:69
  TRACK 45 AUDIO
    TITLE "1Q_t_0759-0768_45"
    INDEX 01 01:09:02
  TRACK 46 AUDIO
    TITLE "1Q_t_0759-0768_46"
    INDEX 01 01:11:42
  TRACK 47 AUDIO
    TITLE "1Q_t_0759-0768_47"
    INDEX 01 01:11:52
  TRACK 48 AUDIO
    TITLE "1Q_t_0759-0768_48"
    INDEX 01 01:17:70
  TRACK 49 AUDIO
    TITLE "1Q_t_0759-0768_49"
    INDEX 01 01:18:46
  TRACK 50 AUDIO
    TITLE "1Q_t_0759-0768_50"
    INDEX 01 01:19:61
  TRACK 51 AUDIO
    TITLE "1Q_t_0759-0768_51"
    INDEX 01 01:19:69
  TRACK 52 AUDIO
    TITLE "1Q_t_0759-0768_52"
    INDEX 01 01:21:15
  TRACK 53 AUDIO
    TITLE "1Q_t_0759-0768_53"
    INDEX 01 01:21:22
  TRACK 54 AUDIO
    TITLE "1Q_t_0759-0768_54"
    INDEX 01 01:26:49
  TRACK 55 AUDIO
    TITLE "1Q_t_0759-0768_55"
    INDEX 01 01:27:21
  TRACK 56 AUDIO
    TITLE "1Q_t_0759-0768_56"
    INDEX 01 01:28:32
  TRACK 57 AUDIO
    TITLE "1Q_t_0759-0768_57"
    INDEX 01 01:28:40
  TRACK 58 AUDIO
    TITLE "1Q_t_0759-0768_58"
    INDEX 01 01:30:49
  TRACK 59 AUDIO
    TITLE "1Q_t_0759-0768_59"
    INDEX 01 01:30:55
  TRACK 60 AUDIO
    TITLE "1Q_t_0759-0768_60"
    INDEX 01 01:36:16
